<svg width="32" height="32" viewBox="0 0 32 32" xmlns="http://www.w3.org/2000/svg" shape-rendering="crispEdges">
  <g fill="#FFD100">
    <rect x="14" y="0" width="4" height="8"/><rect x="14" y="24" width="4" height="8"/>
    <rect x="0" y="14" width="8" height="4"/><rect x="24" y="14" width="8" height="4"/>
    <rect x="6" y="6" width="4" height="4"/><rect x="22" y="6" width="4" height="4"/>
    <rect x="6" y="22" width="4" height="4"/><rect x="22" y="22" width="4" height="4"/>
    <rect x="11" y="3" width="2" height="5"/><rect x="19" y="3" width="2" height="5"/>
    <rect x="11" y="24" width="2" height="5"/><rect x="19" y="24" width="2" height="5"/>
    <rect x="3" y="11" width="5" height="2"/><rect x="3" y="19" width="5" height="2"/>
    <rect x="24" y="11" width="5" height="2"/><rect x="24" y="19" width="5" height="2"/>
    <rect x="10" y="8" width="12" height="16"/><rect x="8" y="10" width="16" height="12"/>
  </g>
  <g fill="#FF6B00">
    <rect x="12" y="11" width="8" height="10"/><rect x="11" y="12" width="10" height="8"/>
    <rect x="15" y="7" width="2" height="4"/><rect x="15" y="21" width="2" height="4"/>
    <rect x="7" y="15" width="4" height="2"/><rect x="21" y="15" width="4" height="2"/>
  </g>
</svg>
